<svg width="58" height="62" viewBox="0 0 58 62" fill="none" xmlns="http://www.w3.org/2000/svg">
<g clip-path="url(#clip0_29_267)">
<path d="M2.69622 57.7729C1.75942 55.433 2.99963 53.116 5.46629 52.5979L49.3329 43.3836C51.7996 42.8655 54.5586 44.3423 55.4954 46.6823V46.6823C56.4322 49.0222 55.192 51.3391 52.7254 51.8573L8.85873 61.0716C6.39207 61.5897 3.63302 60.1128 2.69622 57.7729V57.7729Z" fill="#FEFCFC"/>
<path d="M2.63174 32.5061C1.69494 30.2915 2.84737 28.1162 5.20575 27.6474L49.4645 18.8489C51.8229 18.3801 54.4942 19.7952 55.431 22.0098V22.0098C56.3677 24.2243 55.2153 26.3996 52.8569 26.8685L8.59819 35.667C6.2398 36.1358 3.56853 34.7206 2.63174 32.5061V32.5061Z" fill="#FEFCFC"/>
<path d="M2.69622 44.9118C1.75942 42.6693 2.93139 40.4626 5.31389 39.983L49.4853 31.0911C51.8678 30.6115 54.5586 32.0406 55.4954 34.2831V34.2831C56.4322 36.5256 55.2603 38.7323 52.8778 39.2119L8.70633 48.1037C6.32383 48.5834 3.63302 47.1543 2.69622 44.9118V44.9118Z" fill="#FEFCFC"/>
<mask id="mask0_29_267" style="mask-type:luminance" maskUnits="userSpaceOnUse" x="2" y="20" width="54" height="16">
<path d="M55.2812 20.9386H2V35.1161H55.2812V20.9386Z" fill="white"/>
</mask>
<g mask="url(#mask0_29_267)">
<path d="M4.00085 31.9671C3.89057 31.8145 3.55787 31.7378 3.25775 31.7957C2.95762 31.8536 2.80373 32.0241 2.91401 32.1767L3.31337 32.7292C3.42365 32.8817 3.75635 32.9585 4.05648 32.9006C4.3566 32.8427 4.5105 32.6721 4.40022 32.5195L4.00085 31.9671Z" fill="url(#paint0_linear_29_267)"/>
<path d="M5.37678 30.4435C5.26652 30.2909 4.93386 30.2142 4.63378 30.2721C4.33369 30.3299 4.17981 30.5005 4.29008 30.6531L6.28664 33.4152C6.39691 33.5677 6.72956 33.6445 7.02965 33.5866C7.32973 33.5287 7.48361 33.3581 7.37335 33.2056L5.37678 30.4435Z" fill="url(#paint1_linear_29_267)"/>
<path d="M6.3536 28.3674C6.24334 28.2149 5.91071 28.1382 5.61064 28.196C5.31057 28.2539 5.15671 28.4245 5.26697 28.577L9.65913 34.6536C9.76939 34.8062 10.102 34.8829 10.4021 34.825C10.7022 34.7671 10.856 34.5965 10.7458 34.444L6.3536 28.3674Z" fill="url(#paint2_linear_29_267)"/>
<path d="M9.72606 29.6059C9.61579 29.4533 9.28314 29.3766 8.98305 29.4345C8.68296 29.4924 8.52909 29.663 8.63935 29.8155L10.6359 32.5776C10.7462 32.7302 11.0788 32.8069 11.3789 32.749C11.679 32.6911 11.8329 32.5206 11.7226 32.368L9.72606 29.6059Z" fill="url(#paint3_linear_29_267)"/>
<path d="M12.6993 30.2919C12.589 30.1394 12.2563 30.0626 11.9562 30.1205C11.6561 30.1784 11.5022 30.349 11.6125 30.5016L12.0118 31.054C12.1221 31.2066 12.4548 31.2833 12.7549 31.2254C13.0551 31.1675 13.209 30.9969 13.0987 30.8444L12.6993 30.2919Z" fill="url(#paint4_linear_29_267)"/>
<path d="M14.0753 28.7684C13.965 28.6158 13.6323 28.5391 13.3323 28.597C13.0322 28.6549 12.8783 28.8254 12.9886 28.978L14.9851 31.7401C15.0954 31.8927 15.4281 31.9694 15.7281 31.9115C16.0282 31.8536 16.1821 31.683 16.0718 31.5305L14.0753 28.7684Z" fill="url(#paint5_linear_29_267)"/>
<path d="M15.0521 26.6924C14.9418 26.5398 14.6092 26.4631 14.3091 26.521C14.009 26.5789 13.8552 26.7494 13.9654 26.902L18.3576 32.9785C18.4678 33.1311 18.8005 33.2078 19.1005 33.15C19.4006 33.0921 19.5545 32.9215 19.4442 32.7689L15.0521 26.6924Z" fill="url(#paint6_linear_29_267)"/>
<path d="M18.4245 27.9308C18.3142 27.7783 17.9816 27.7015 17.6815 27.7594C17.3814 27.8173 17.2275 27.9879 17.3378 28.1404L19.3343 30.9025C19.4446 31.0551 19.7773 31.1318 20.0773 31.0739C20.3774 31.0161 20.5313 30.8455 20.421 30.6929L18.4245 27.9308Z" fill="url(#paint7_linear_29_267)"/>
<path d="M21.3978 28.6169C21.2875 28.4643 20.9548 28.3876 20.6547 28.4454C20.3545 28.5033 20.2006 28.6739 20.3109 28.8265L20.7103 29.3789C20.8206 29.5315 21.1533 29.6082 21.4534 29.5503C21.7535 29.4925 21.9074 29.3219 21.7971 29.1693L21.3978 28.6169Z" fill="url(#paint8_linear_29_267)"/>
<path d="M22.7738 27.0933C22.6635 26.9407 22.3309 26.864 22.0308 26.9219C21.7307 26.9798 21.5768 27.1503 21.6871 27.3029L23.6836 30.065C23.7939 30.2176 24.1266 30.2943 24.4267 30.2364C24.7267 30.1785 24.8806 30.008 24.7703 29.8554L22.7738 27.0933Z" fill="url(#paint9_linear_29_267)"/>
<path d="M24.1498 25.5697C24.0396 25.4171 23.7069 25.3404 23.4069 25.3983C23.1068 25.4562 22.9529 25.6267 23.0632 25.7793L26.6568 30.751C26.7671 30.9036 27.0997 30.9803 27.3998 30.9224C27.6999 30.8646 27.8537 30.694 27.7435 30.5414L24.1498 25.5697Z" fill="url(#paint10_linear_29_267)"/>
<path d="M27.9788 27.4398C27.8685 27.2873 27.5358 27.2105 27.2357 27.2684C26.9356 27.3263 26.7817 27.4969 26.8919 27.6495L27.2913 28.2019C27.4016 28.3545 27.7343 28.4312 28.0344 28.3733C28.3345 28.3154 28.4884 28.1448 28.3782 27.9923L27.9788 27.4398Z" fill="url(#paint11_linear_29_267)"/>
<path d="M30.0673 26.9473C29.9571 26.7948 29.6244 26.718 29.3242 26.7759C29.0241 26.8338 28.8702 27.0044 28.9805 27.157L29.3799 27.7094C29.4901 27.862 29.8228 27.9387 30.123 27.8808C30.4231 27.8229 30.577 27.6523 30.4667 27.4998L30.0673 26.9473Z" fill="url(#paint12_linear_29_267)"/>
<path d="M31.4433 25.4237C31.333 25.2712 31.0003 25.1944 30.7002 25.2523C30.4002 25.3102 30.2463 25.4808 30.3565 25.6333L32.3531 28.3955C32.4634 28.548 32.796 28.6247 33.0961 28.5669C33.3962 28.509 33.5501 28.3384 33.4398 28.1858L31.4433 25.4237Z" fill="url(#paint13_linear_29_267)"/>
<path d="M32.4202 23.3477C32.3099 23.1952 31.9773 23.1184 31.6772 23.1763C31.3771 23.2342 31.2233 23.4048 31.3335 23.5573L35.7257 29.6339C35.8359 29.7864 36.1686 29.8632 36.4686 29.8053C36.7687 29.7474 36.9226 29.5768 36.8123 29.4243L32.4202 23.3477Z" fill="url(#paint14_linear_29_267)"/>
<path d="M35.7926 24.5862C35.6823 24.4336 35.3497 24.3569 35.0496 24.4148C34.7495 24.4727 34.5956 24.6432 34.7059 24.7958L36.7024 27.5579C36.8127 27.7105 37.1454 27.7872 37.4455 27.7293C37.7455 27.6714 37.8994 27.5009 37.7891 27.3483L35.7926 24.5862Z" fill="url(#paint15_linear_29_267)"/>
<path d="M38.7659 25.2722C38.6556 25.1197 38.3229 25.0429 38.0228 25.1008C37.7226 25.1587 37.5687 25.3293 37.679 25.4819L38.0784 26.0343C38.1887 26.1869 38.5214 26.2636 38.8215 26.2057C39.1216 26.1478 39.2755 25.9772 39.1652 25.8247L38.7659 25.2722Z" fill="url(#paint16_linear_29_267)"/>
<path d="M40.1418 23.7486C40.0315 23.5961 39.6988 23.5193 39.3988 23.5772C39.0987 23.6351 38.9448 23.8057 39.0551 23.9582L41.0516 26.7204C41.1619 26.8729 41.4945 26.9497 41.7946 26.8918C42.0947 26.8339 42.2486 26.6633 42.1383 26.5108L40.1418 23.7486Z" fill="url(#paint17_linear_29_267)"/>
<path d="M41.1186 21.6726C41.0083 21.5201 40.6757 21.4434 40.3756 21.5012C40.0755 21.5591 39.9217 21.7297 40.0319 21.8822L44.4241 27.9588C44.5343 28.1113 44.867 28.1881 45.167 28.1302C45.4671 28.0723 45.621 27.9017 45.5107 27.7492L41.1186 21.6726Z" fill="url(#paint18_linear_29_267)"/>
<path d="M44.491 22.9111C44.3807 22.7585 44.0481 22.6818 43.748 22.7397C43.4479 22.7976 43.294 22.9682 43.4043 23.1207L45.4008 25.8828C45.5111 26.0354 45.8438 26.1121 46.1438 26.0542C46.4439 25.9963 46.5978 25.8258 46.4875 25.6732L44.491 22.9111Z" fill="url(#paint19_linear_29_267)"/>
<path d="M47.4643 23.5971C47.354 23.4446 47.0213 23.3678 46.7212 23.4257C46.4211 23.4836 46.2672 23.6542 46.3774 23.8068L46.7768 24.3592C46.8871 24.5118 47.2198 24.5885 47.5199 24.5306C47.82 24.4727 47.9739 24.3021 47.8637 24.1496L47.4643 23.5971Z" fill="url(#paint20_linear_29_267)"/>
<path d="M48.8402 22.0735C48.7299 21.921 48.3973 21.8443 48.0972 21.9021C47.7971 21.96 47.6432 22.1306 47.7535 22.2832L49.7501 25.0453C49.8603 25.1978 50.193 25.2746 50.4931 25.2167C50.7931 25.1588 50.947 24.9882 50.8368 24.8357L48.8402 22.0735Z" fill="url(#paint21_linear_29_267)"/>
<path d="M50.2163 20.5499C50.106 20.3974 49.7734 20.3207 49.4733 20.3785C49.1732 20.4364 49.0194 20.607 49.1296 20.7596L52.7233 25.7313C52.8335 25.8838 53.1662 25.9606 53.4663 25.9027C53.7663 25.8448 53.9202 25.6742 53.8099 25.5217L50.2163 20.5499Z" fill="url(#paint22_linear_29_267)"/>
<path d="M53.9882 22.3408C53.8779 22.1883 53.5452 22.1115 53.2451 22.1694C52.945 22.2273 52.7911 22.3979 52.9013 22.5504L53.3007 23.1029C53.411 23.2554 53.7437 23.3322 54.0438 23.2743C54.3439 23.2164 54.4978 23.0458 54.3876 22.8933L53.9882 22.3408Z" fill="url(#paint23_linear_29_267)"/>
</g>
<mask id="mask1_29_267" style="mask-type:luminance" maskUnits="userSpaceOnUse" x="2" y="44" width="55" height="17">
<path d="M55.2312 44.4292L2 45.7207L2.96809 60.6986L56.1993 59.4071L55.2312 44.4292Z" fill="white"/>
</mask>
<g mask="url(#mask1_29_267)">
<path d="M4.12307 57.1433C4.01276 56.9821 3.68008 56.901 3.38002 56.9621C3.07995 57.0232 2.92612 57.2035 3.03644 57.3647L3.4359 57.9485C3.54621 58.1097 3.87889 58.1908 4.17896 58.1297C4.47902 58.0685 4.63285 57.8883 4.52254 57.7271L4.12307 57.1433Z" fill="url(#paint24_linear_29_267)"/>
<path d="M5.49888 55.5335C5.38859 55.3723 5.056 55.2912 4.75601 55.3523C4.45602 55.4134 4.30223 55.5936 4.41251 55.7548L6.40936 58.6734C6.51964 58.8346 6.85223 58.9157 7.15223 58.8546C7.45222 58.7935 7.606 58.6133 7.49572 58.4521L5.49888 55.5335Z" fill="url(#paint25_linear_29_267)"/>
<path d="M6.47559 53.3399C6.36532 53.1787 6.03277 53.0976 5.73281 53.1587C5.43286 53.2198 5.27909 53.4001 5.38936 53.5612L9.78189 59.982C9.89216 60.1432 10.2247 60.2243 10.5247 60.1631C10.8246 60.102 10.9784 59.9218 10.8681 59.7606L6.47559 53.3399Z" fill="url(#paint26_linear_29_267)"/>
<path d="M9.84812 54.6485C9.73784 54.4873 9.40524 54.4062 9.10525 54.4673C8.80526 54.5284 8.65147 54.7086 8.76176 54.8698L10.7586 57.7884C10.8689 57.9496 11.2015 58.0307 11.5015 57.9696C11.8015 57.9085 11.9553 57.7283 11.845 57.5671L9.84812 54.6485Z" fill="url(#paint27_linear_29_267)"/>
<path d="M12.8216 55.3734C12.7112 55.2122 12.3786 55.131 12.0785 55.1922C11.7784 55.2533 11.6246 55.4336 11.7349 55.5948L12.1344 56.1785C12.2447 56.3398 12.5774 56.4209 12.8774 56.3597C13.1775 56.2986 13.3313 56.1184 13.221 55.9572L12.8216 55.3734Z" fill="url(#paint28_linear_29_267)"/>
<path d="M14.1974 53.7635C14.0871 53.6023 13.7545 53.5212 13.4545 53.5823C13.1545 53.6434 13.0007 53.8236 13.111 53.9848L15.1078 56.9034C15.2181 57.0646 15.5507 57.1457 15.8507 57.0846C16.1507 57.0235 16.3045 56.8433 16.1942 56.6821L14.1974 53.7635Z" fill="url(#paint29_linear_29_267)"/>
<path d="M15.174 51.5699C15.0638 51.4088 14.7312 51.3276 14.4313 51.3888C14.1313 51.4499 13.9775 51.6301 14.0878 51.7913L18.4803 58.212C18.5906 58.3732 18.9232 58.4543 19.2231 58.3932C19.5231 58.3321 19.6768 58.1519 19.5666 57.9907L15.174 51.5699Z" fill="url(#paint30_linear_29_267)"/>
<path d="M18.5466 52.8785C18.4363 52.7173 18.1037 52.6362 17.8037 52.6973C17.5037 52.7585 17.3499 52.9387 17.4602 53.0999L19.4571 56.0185C19.5673 56.1797 19.8999 56.2608 20.1999 56.1997C20.4999 56.1385 20.6537 55.9583 20.5434 55.7971L18.5466 52.8785Z" fill="url(#paint31_linear_29_267)"/>
<path d="M21.52 53.6034C21.4097 53.4422 21.0771 53.3611 20.777 53.4222C20.4769 53.4834 20.3231 53.6636 20.4334 53.8248L20.8329 54.4086C20.9432 54.5698 21.2759 54.6509 21.5759 54.5898C21.876 54.5287 22.0298 54.3484 21.9195 54.1872L21.52 53.6034Z" fill="url(#paint32_linear_29_267)"/>
<path d="M22.8958 51.9935C22.7855 51.8323 22.4529 51.7512 22.1529 51.8124C21.8529 51.8735 21.6991 52.0537 21.8094 52.2149L23.8063 55.1335C23.9166 55.2947 24.2491 55.3758 24.5491 55.3147C24.8491 55.2535 25.0029 55.0733 24.8926 54.9121L22.8958 51.9935Z" fill="url(#paint33_linear_29_267)"/>
<path d="M24.2719 50.3837C24.1616 50.2225 23.829 50.1414 23.5291 50.2025C23.2291 50.2637 23.0753 50.4439 23.1856 50.6051L26.7796 55.8584C26.8899 56.0196 27.2224 56.1007 27.5224 56.0396C27.8223 55.9785 27.9761 55.7982 27.8658 55.6371L24.2719 50.3837Z" fill="url(#paint34_linear_29_267)"/>
<path d="M28.101 52.3597C27.9907 52.1985 27.658 52.1174 27.358 52.1785C27.0579 52.2396 26.9041 52.4199 27.0144 52.5811L27.4139 53.1649C27.5242 53.3261 27.8569 53.4072 28.1569 53.3461C28.457 53.2849 28.6108 53.1047 28.5005 52.9435L28.101 52.3597Z" fill="url(#paint35_linear_29_267)"/>
<path d="M30.1896 51.8394C30.0793 51.6782 29.7466 51.5971 29.4466 51.6582C29.1465 51.7193 28.9927 51.8996 29.103 52.0608L29.5025 52.6446C29.6128 52.8058 29.9454 52.8869 30.2455 52.8258C30.5456 52.7646 30.6994 52.5844 30.5891 52.4232L30.1896 51.8394Z" fill="url(#paint36_linear_29_267)"/>
<path d="M31.5653 50.2295C31.4551 50.0683 31.1225 49.9872 30.8225 50.0483C30.5225 50.1094 30.3687 50.2897 30.479 50.4509L32.4758 53.3695C32.5861 53.5306 32.9187 53.6118 33.2187 53.5506C33.5187 53.4895 33.6725 53.3093 33.5622 53.1481L31.5653 50.2295Z" fill="url(#paint37_linear_29_267)"/>
<path d="M32.5421 48.036C32.4318 47.8748 32.0992 47.7937 31.7993 47.8548C31.4993 47.9159 31.3456 48.0961 31.4558 48.2573L35.8484 54.6781C35.9586 54.8392 36.2912 54.9204 36.5911 54.8592C36.8911 54.7981 37.0449 54.6179 36.9346 54.4567L32.5421 48.036Z" fill="url(#paint38_linear_29_267)"/>
<path d="M35.9146 49.3445C35.8043 49.1834 35.4717 49.1022 35.1717 49.1634C34.8717 49.2245 34.7179 49.4047 34.8282 49.5659L36.825 52.4845C36.9353 52.6457 37.2679 52.7268 37.5679 52.6657C37.8679 52.6046 38.0217 52.4243 37.9114 52.2632L35.9146 49.3445Z" fill="url(#paint39_linear_29_267)"/>
<path d="M38.888 50.0694C38.7777 49.9082 38.445 49.8271 38.145 49.8883C37.8449 49.9494 37.6911 50.1296 37.8014 50.2908L38.2009 50.8746C38.3112 51.0358 38.6438 51.117 38.9439 51.0558C39.244 50.9947 39.3978 50.8144 39.2875 50.6532L38.888 50.0694Z" fill="url(#paint40_linear_29_267)"/>
<path d="M40.2639 48.4595C40.1536 48.2984 39.821 48.2172 39.521 48.2784C39.221 48.3395 39.0672 48.5197 39.1775 48.6809L41.1744 51.5995C41.2847 51.7607 41.6173 51.8418 41.9172 51.7807C42.2172 51.7196 42.371 51.5393 42.2607 51.3781L40.2639 48.4595Z" fill="url(#paint41_linear_29_267)"/>
<path d="M41.2406 46.266C41.1303 46.1048 40.7978 46.0237 40.4978 46.0848C40.1978 46.1459 40.0441 46.3261 40.1543 46.4873L44.5469 52.9081C44.6571 53.0692 44.9897 53.1504 45.2897 53.0892C45.5896 53.0281 45.7434 52.8479 45.6331 52.6867L41.2406 46.266Z" fill="url(#paint42_linear_29_267)"/>
<path d="M44.6131 47.5745C44.5028 47.4134 44.1702 47.3322 43.8702 47.3934C43.5702 47.4545 43.4164 47.6347 43.5267 47.7959L45.5236 50.7145C45.6338 50.8757 45.9664 50.9568 46.2664 50.8957C46.5664 50.8346 46.7202 50.6543 46.6099 50.4931L44.6131 47.5745Z" fill="url(#paint43_linear_29_267)"/>
<path d="M47.5865 48.2994C47.4762 48.1382 47.1436 48.0571 46.8435 48.1183C46.5434 48.1794 46.3896 48.3596 46.4999 48.5208L46.8994 49.1046C47.0097 49.2658 47.3424 49.347 47.6424 49.2858C47.9425 49.2247 48.0963 49.0444 47.986 48.8832L47.5865 48.2994Z" fill="url(#paint44_linear_29_267)"/>
<path d="M48.9623 46.6896C48.852 46.5284 48.5194 46.4473 48.2194 46.5084C47.9194 46.5696 47.7656 46.7498 47.8759 46.911L49.8728 49.8296C49.9831 49.9908 50.3156 50.0719 50.6156 50.0108C50.9156 49.9496 51.0694 49.7694 50.9591 49.6082L48.9623 46.6896Z" fill="url(#paint45_linear_29_267)"/>
<path d="M50.3384 45.0797C50.2281 44.9185 49.8955 44.8374 49.5956 44.8986C49.2956 44.9597 49.1418 45.1399 49.2521 45.3011L52.8461 50.5545C52.9564 50.7156 53.2889 50.7968 53.5889 50.7356C53.8888 50.6745 54.0426 50.4943 53.9323 50.3331L50.3384 45.0797Z" fill="url(#paint46_linear_29_267)"/>
<path d="M54.1105 46.972C54.0002 46.8108 53.6675 46.7297 53.3674 46.7908C53.0673 46.852 52.9135 47.0322 53.0238 47.1934L53.4233 47.7772C53.5336 47.9384 53.8663 48.0195 54.1664 47.9584C54.4664 47.8973 54.6202 47.717 54.5099 47.5558L54.1105 46.972Z" fill="url(#paint47_linear_29_267)"/>
</g>
<mask id="mask2_29_267" style="mask-type:luminance" maskUnits="userSpaceOnUse" x="2" y="32" width="55" height="16">
<path d="M55.2312 32.2606L2 33.4977L2.96789 47.8518L56.1991 46.6146L55.2312 32.2606Z" fill="white"/>
</mask>
<g mask="url(#mask2_29_267)">
<path d="M4.11089 44.2628C4.00058 44.1083 3.66791 44.0306 3.36784 44.0892C3.06778 44.1477 2.91395 44.3205 3.02426 44.475L3.42373 45.0344C3.53404 45.1889 3.86671 45.2667 4.16678 45.2081C4.46685 45.1495 4.62067 44.9768 4.51036 44.8223L4.11089 44.2628Z" fill="url(#paint48_linear_29_267)"/>
<path d="M5.48667 42.7199C5.37639 42.5655 5.04379 42.4877 4.7438 42.5463C4.44381 42.6049 4.29002 42.7776 4.40031 42.9321L6.39715 45.7291C6.50744 45.8836 6.84003 45.9614 7.14002 45.9028C7.44001 45.8442 7.5938 45.6715 7.48352 45.517L5.48667 42.7199Z" fill="url(#paint49_linear_29_267)"/>
<path d="M6.46338 40.6178C6.35311 40.4633 6.02056 40.3856 5.72061 40.4442C5.42065 40.5027 5.26688 40.6755 5.37715 40.8299L9.76968 46.9832C9.87995 47.1377 10.2125 47.2154 10.5125 47.1569C10.8124 47.0983 10.9662 46.9256 10.8559 46.7711L6.46338 40.6178Z" fill="url(#paint50_linear_29_267)"/>
<path d="M9.83591 41.8718C9.72563 41.7173 9.39304 41.6396 9.09305 41.6982C8.79306 41.7568 8.63927 41.9295 8.74955 42.084L10.7464 44.881C10.8567 45.0355 11.1893 45.1132 11.4893 45.0546C11.7893 44.996 11.943 44.8233 11.8328 44.6689L9.83591 41.8718Z" fill="url(#paint51_linear_29_267)"/>
<path d="M12.8093 42.5666C12.699 42.4121 12.3664 42.3343 12.0663 42.3929C11.7662 42.4515 11.6124 42.6243 11.7227 42.7788L12.1222 43.3382C12.2325 43.4927 12.5652 43.5705 12.8652 43.5119C13.1653 43.4533 13.3191 43.2805 13.2088 43.126L12.8093 42.5666Z" fill="url(#paint52_linear_29_267)"/>
<path d="M14.1852 41.0237C14.0749 40.8693 13.7423 40.7915 13.4423 40.8501C13.1423 40.9087 12.9885 41.0814 13.0988 41.2359L15.0956 44.0329C15.2059 44.1874 15.5385 44.2651 15.8385 44.2066C16.1385 44.148 16.2923 43.9752 16.182 43.8208L14.1852 41.0237Z" fill="url(#paint53_linear_29_267)"/>
<path d="M15.1618 38.9215C15.0516 38.767 14.719 38.6893 14.4191 38.7479C14.1191 38.8065 13.9653 38.9792 14.0756 39.1337L18.4681 45.287C18.5784 45.4414 18.911 45.5192 19.2109 45.4606C19.5109 45.402 19.6646 45.2293 19.5544 45.0748L15.1618 38.9215Z" fill="url(#paint54_linear_29_267)"/>
<path d="M18.5344 40.1756C18.4241 40.0211 18.0915 39.9434 17.7915 40.002C17.4915 40.0605 17.3377 40.2333 17.448 40.3877L19.4449 43.1848C19.5551 43.3393 19.8877 43.417 20.1877 43.3584C20.4877 43.2998 20.6415 43.1271 20.5312 42.9726L18.5344 40.1756Z" fill="url(#paint55_linear_29_267)"/>
<path d="M21.5078 40.8703C21.3975 40.7158 21.0648 40.6381 20.7648 40.6967C20.4647 40.7552 20.3109 40.928 20.4212 41.0825L20.8207 41.6419C20.931 41.7964 21.2637 41.8742 21.5637 41.8156C21.8638 41.757 22.0176 41.5843 21.9073 41.4298L21.5078 40.8703Z" fill="url(#paint56_linear_29_267)"/>
<path d="M22.8836 39.3275C22.7733 39.173 22.4407 39.0953 22.1407 39.1539C21.8407 39.2125 21.6869 39.3852 21.7972 39.5397L23.7941 42.3367C23.9043 42.4912 24.2369 42.5689 24.5369 42.5103C24.8369 42.4517 24.9907 42.279 24.8804 42.1246L22.8836 39.3275Z" fill="url(#paint57_linear_29_267)"/>
<path d="M24.2597 37.7847C24.1494 37.6302 23.8168 37.5525 23.5169 37.6111C23.2169 37.6696 23.0631 37.8424 23.1734 37.9968L26.7674 43.0314C26.8777 43.1859 27.2102 43.2636 27.5102 43.205C27.8101 43.1464 27.9639 42.9737 27.8536 42.8192L24.2597 37.7847Z" fill="url(#paint58_linear_29_267)"/>
<path d="M28.0888 39.6784C27.9785 39.5239 27.6458 39.4462 27.3458 39.5048C27.0457 39.5634 26.8919 39.7361 27.0022 39.8906L27.4017 40.4501C27.512 40.6046 27.8446 40.6823 28.1447 40.6237C28.4448 40.5651 28.5986 40.3924 28.4883 40.2379L28.0888 39.6784Z" fill="url(#paint59_linear_29_267)"/>
<path d="M30.1774 39.1797C30.0671 39.0252 29.7344 38.9475 29.4344 39.0061C29.1343 39.0647 28.9805 39.2374 29.0908 39.3919L29.4903 39.9514C29.6006 40.1059 29.9332 40.1836 30.2333 40.125C30.5334 40.0664 30.6872 39.8937 30.5769 39.7392L30.1774 39.1797Z" fill="url(#paint60_linear_29_267)"/>
<path d="M31.5531 37.6369C31.4429 37.4824 31.1103 37.4047 30.8103 37.4632C30.5103 37.5218 30.3565 37.6946 30.4668 37.849L32.4636 40.6461C32.5739 40.8005 32.9065 40.8783 33.2065 40.8197C33.5065 40.7611 33.6603 40.5884 33.55 40.4339L31.5531 37.6369Z" fill="url(#paint61_linear_29_267)"/>
<path d="M32.5299 35.5347C32.4196 35.3802 32.087 35.3025 31.7871 35.3611C31.4871 35.4197 31.3333 35.5924 31.4436 35.7469L35.8362 41.9002C35.9464 42.0546 36.279 42.1324 36.5789 42.0738C36.8789 42.0152 37.0327 41.8425 36.9224 41.688L32.5299 35.5347Z" fill="url(#paint62_linear_29_267)"/>
<path d="M35.9024 36.7888C35.7921 36.6343 35.4595 36.5566 35.1595 36.6152C34.8595 36.6738 34.7057 36.8465 34.816 37.0009L36.8128 39.798C36.9231 39.9525 37.2557 40.0302 37.5557 39.9716C37.8557 39.913 38.0095 39.7403 37.8992 39.5858L35.9024 36.7888Z" fill="url(#paint63_linear_29_267)"/>
<path d="M38.8758 37.4835C38.7655 37.329 38.4328 37.2513 38.1328 37.3099C37.8327 37.3685 37.6789 37.5412 37.7892 37.6957L38.1887 38.2552C38.299 38.4096 38.6316 38.4874 38.9317 38.4288C39.2318 38.3702 39.3856 38.1975 39.2753 38.043L38.8758 37.4835Z" fill="url(#paint64_linear_29_267)"/>
<path d="M40.2517 35.9407C40.1414 35.7862 39.8088 35.7084 39.5088 35.767C39.2088 35.8256 39.055 35.9983 39.1653 36.1528L41.1622 38.9499C41.2725 39.1043 41.605 39.1821 41.905 39.1235C42.205 39.0649 42.3588 38.8922 42.2485 38.7377L40.2517 35.9407Z" fill="url(#paint65_linear_29_267)"/>
<path d="M41.2284 33.8385C41.1181 33.684 40.7855 33.6063 40.4856 33.6649C40.1856 33.7235 40.0319 33.8962 40.1421 34.0506L44.5347 40.2039C44.6449 40.3584 44.9775 40.4362 45.2774 40.3776C45.5774 40.319 45.7312 40.1463 45.6209 39.9918L41.2284 33.8385Z" fill="url(#paint66_linear_29_267)"/>
<path d="M44.6009 35.0926C44.4906 34.9381 44.158 34.8604 43.858 34.9189C43.558 34.9775 43.4042 35.1503 43.5145 35.3047L45.5114 38.1018C45.6216 38.2562 45.9542 38.334 46.2542 38.2754C46.5542 38.2168 46.708 38.0441 46.5977 37.8896L44.6009 35.0926Z" fill="url(#paint67_linear_29_267)"/>
<path d="M47.5743 35.7873C47.464 35.6328 47.1313 35.555 46.8313 35.6136C46.5312 35.6722 46.3774 35.845 46.4877 35.9995L46.8872 36.5589C46.9975 36.7134 47.3302 36.7912 47.6302 36.7326C47.9303 36.674 48.0841 36.5012 47.9738 36.3468L47.5743 35.7873Z" fill="url(#paint68_linear_29_267)"/>
<path d="M48.9501 34.2444C48.8398 34.09 48.5072 34.0122 48.2072 34.0708C47.9072 34.1294 47.7534 34.3021 47.8637 34.4566L49.8606 37.2536C49.9708 37.4081 50.3034 37.4858 50.6034 37.4273C50.9034 37.3687 51.0572 37.196 50.9469 37.0415L48.9501 34.2444Z" fill="url(#paint69_linear_29_267)"/>
<path d="M50.3262 32.7016C50.2159 32.5471 49.8833 32.4694 49.5834 32.528C49.2834 32.5866 49.1296 32.7593 49.2399 32.9138L52.8339 37.9483C52.9441 38.1028 53.2767 38.1805 53.5767 38.1219C53.8766 38.0633 54.0304 37.8906 53.9201 37.7362L50.3262 32.7016Z" fill="url(#paint70_linear_29_267)"/>
<path d="M54.0983 34.5151C53.9879 34.3606 53.6553 34.2829 53.3552 34.3415C53.0551 34.4001 52.9013 34.5728 53.0116 34.7273L53.4111 35.2868C53.5214 35.4412 53.8541 35.519 54.1541 35.4604C54.4542 35.4018 54.608 35.2291 54.4977 35.0746L54.0983 34.5151Z" fill="url(#paint71_linear_29_267)"/>
</g>
<path d="M15 0L17.9698 9.84835L29 12.5L17.9698 15.1517L15 25L12.0302 15.1517L1 12.5L12.0302 9.84835L15 0Z" fill="#F8FBFF"/>
</g>
<defs>
<linearGradient id="paint0_linear_29_267" x1="3.25775" y1="31.7957" x2="3.49185" y2="33.0095" gradientUnits="userSpaceOnUse">
<stop stop-color="#1174E6"/>
<stop offset="1" stop-color="#094180"/>
</linearGradient>
<linearGradient id="paint1_linear_29_267" x1="4.63378" y1="30.2721" x2="5.3361" y2="33.9133" gradientUnits="userSpaceOnUse">
<stop stop-color="#1174E6"/>
<stop offset="1" stop-color="#094180"/>
</linearGradient>
<linearGradient id="paint2_linear_29_267" x1="5.61064" y1="28.196" x2="7.01533" y2="35.4783" gradientUnits="userSpaceOnUse">
<stop stop-color="#1174E6"/>
<stop offset="1" stop-color="#094180"/>
</linearGradient>
<linearGradient id="paint3_linear_29_267" x1="8.98305" y1="29.4345" x2="9.68538" y2="33.0757" gradientUnits="userSpaceOnUse">
<stop stop-color="#1174E6"/>
<stop offset="1" stop-color="#094180"/>
</linearGradient>
<linearGradient id="paint4_linear_29_267" x1="11.9562" y1="30.1205" x2="12.1903" y2="31.3343" gradientUnits="userSpaceOnUse">
<stop stop-color="#1174E6"/>
<stop offset="1" stop-color="#094180"/>
</linearGradient>
<linearGradient id="paint5_linear_29_267" x1="13.3323" y1="28.597" x2="14.0346" y2="32.2382" gradientUnits="userSpaceOnUse">
<stop stop-color="#1174E6"/>
<stop offset="1" stop-color="#094180"/>
</linearGradient>
<linearGradient id="paint6_linear_29_267" x1="14.3091" y1="26.521" x2="15.7138" y2="33.8032" gradientUnits="userSpaceOnUse">
<stop stop-color="#1174E6"/>
<stop offset="1" stop-color="#094180"/>
</linearGradient>
<linearGradient id="paint7_linear_29_267" x1="17.6815" y1="27.7594" x2="18.3838" y2="31.4006" gradientUnits="userSpaceOnUse">
<stop stop-color="#1174E6"/>
<stop offset="1" stop-color="#094180"/>
</linearGradient>
<linearGradient id="paint8_linear_29_267" x1="20.6547" y1="28.4454" x2="20.8888" y2="29.6592" gradientUnits="userSpaceOnUse">
<stop stop-color="#1174E6"/>
<stop offset="1" stop-color="#094180"/>
</linearGradient>
<linearGradient id="paint9_linear_29_267" x1="22.0308" y1="26.9219" x2="22.7331" y2="30.5631" gradientUnits="userSpaceOnUse">
<stop stop-color="#1174E6"/>
<stop offset="1" stop-color="#094180"/>
</linearGradient>
<linearGradient id="paint10_linear_29_267" x1="23.4069" y1="25.3983" x2="24.5774" y2="31.4668" gradientUnits="userSpaceOnUse">
<stop stop-color="#1174E6"/>
<stop offset="1" stop-color="#094180"/>
</linearGradient>
<linearGradient id="paint11_linear_29_267" x1="27.2357" y1="27.2684" x2="27.4698" y2="28.4822" gradientUnits="userSpaceOnUse">
<stop stop-color="#1174E6"/>
<stop offset="1" stop-color="#094180"/>
</linearGradient>
<linearGradient id="paint12_linear_29_267" x1="29.3242" y1="26.7759" x2="29.5584" y2="27.9897" gradientUnits="userSpaceOnUse">
<stop stop-color="#1174E6"/>
<stop offset="1" stop-color="#094180"/>
</linearGradient>
<linearGradient id="paint13_linear_29_267" x1="30.7002" y1="25.2523" x2="31.4026" y2="28.8935" gradientUnits="userSpaceOnUse">
<stop stop-color="#1174E6"/>
<stop offset="1" stop-color="#094180"/>
</linearGradient>
<linearGradient id="paint14_linear_29_267" x1="31.6772" y1="23.1763" x2="33.0819" y2="30.4586" gradientUnits="userSpaceOnUse">
<stop stop-color="#1174E6"/>
<stop offset="1" stop-color="#094180"/>
</linearGradient>
<linearGradient id="paint15_linear_29_267" x1="35.0496" y1="24.4148" x2="35.7519" y2="28.056" gradientUnits="userSpaceOnUse">
<stop stop-color="#1174E6"/>
<stop offset="1" stop-color="#094180"/>
</linearGradient>
<linearGradient id="paint16_linear_29_267" x1="38.0228" y1="25.1008" x2="38.2569" y2="26.3146" gradientUnits="userSpaceOnUse">
<stop stop-color="#1174E6"/>
<stop offset="1" stop-color="#094180"/>
</linearGradient>
<linearGradient id="paint17_linear_29_267" x1="39.3988" y1="23.5772" x2="40.1011" y2="27.2184" gradientUnits="userSpaceOnUse">
<stop stop-color="#1174E6"/>
<stop offset="1" stop-color="#094180"/>
</linearGradient>
<linearGradient id="paint18_linear_29_267" x1="40.3756" y1="21.5012" x2="41.7803" y2="28.7835" gradientUnits="userSpaceOnUse">
<stop stop-color="#1174E6"/>
<stop offset="1" stop-color="#094180"/>
</linearGradient>
<linearGradient id="paint19_linear_29_267" x1="43.748" y1="22.7397" x2="44.4503" y2="26.3809" gradientUnits="userSpaceOnUse">
<stop stop-color="#1174E6"/>
<stop offset="1" stop-color="#094180"/>
</linearGradient>
<linearGradient id="paint20_linear_29_267" x1="46.7212" y1="23.4257" x2="46.9553" y2="24.6395" gradientUnits="userSpaceOnUse">
<stop stop-color="#1174E6"/>
<stop offset="1" stop-color="#094180"/>
</linearGradient>
<linearGradient id="paint21_linear_29_267" x1="48.0972" y1="21.9021" x2="48.7995" y2="25.5433" gradientUnits="userSpaceOnUse">
<stop stop-color="#1174E6"/>
<stop offset="1" stop-color="#094180"/>
</linearGradient>
<linearGradient id="paint22_linear_29_267" x1="49.4733" y1="20.3785" x2="50.6439" y2="26.4471" gradientUnits="userSpaceOnUse">
<stop stop-color="#1174E6"/>
<stop offset="1" stop-color="#094180"/>
</linearGradient>
<linearGradient id="paint23_linear_29_267" x1="53.2451" y1="22.1694" x2="53.4792" y2="23.3832" gradientUnits="userSpaceOnUse">
<stop stop-color="#1174E6"/>
<stop offset="1" stop-color="#094180"/>
</linearGradient>
<linearGradient id="paint24_linear_29_267" x1="3.38002" y1="56.9621" x2="3.64027" y2="58.2394" gradientUnits="userSpaceOnUse">
<stop stop-color="#1174E6"/>
<stop offset="1" stop-color="#094180"/>
</linearGradient>
<linearGradient id="paint25_linear_29_267" x1="4.75601" y1="55.3523" x2="5.53678" y2="59.1838" gradientUnits="userSpaceOnUse">
<stop stop-color="#1174E6"/>
<stop offset="1" stop-color="#094180"/>
</linearGradient>
<linearGradient id="paint26_linear_29_267" x1="5.73281" y1="53.1587" x2="7.29443" y2="60.8214" gradientUnits="userSpaceOnUse">
<stop stop-color="#1174E6"/>
<stop offset="1" stop-color="#094180"/>
</linearGradient>
<linearGradient id="paint27_linear_29_267" x1="9.10525" y1="54.4673" x2="9.88602" y2="58.2988" gradientUnits="userSpaceOnUse">
<stop stop-color="#1174E6"/>
<stop offset="1" stop-color="#094180"/>
</linearGradient>
<linearGradient id="paint28_linear_29_267" x1="12.0785" y1="55.1922" x2="12.3388" y2="56.4695" gradientUnits="userSpaceOnUse">
<stop stop-color="#1174E6"/>
<stop offset="1" stop-color="#094180"/>
</linearGradient>
<linearGradient id="paint29_linear_29_267" x1="13.4545" y1="53.5823" x2="14.2353" y2="57.4138" gradientUnits="userSpaceOnUse">
<stop stop-color="#1174E6"/>
<stop offset="1" stop-color="#094180"/>
</linearGradient>
<linearGradient id="paint30_linear_29_267" x1="14.4313" y1="51.3888" x2="15.9929" y2="59.0515" gradientUnits="userSpaceOnUse">
<stop stop-color="#1174E6"/>
<stop offset="1" stop-color="#094180"/>
</linearGradient>
<linearGradient id="paint31_linear_29_267" x1="17.8037" y1="52.6973" x2="18.5845" y2="56.5289" gradientUnits="userSpaceOnUse">
<stop stop-color="#1174E6"/>
<stop offset="1" stop-color="#094180"/>
</linearGradient>
<linearGradient id="paint32_linear_29_267" x1="20.777" y1="53.4222" x2="21.0372" y2="54.6996" gradientUnits="userSpaceOnUse">
<stop stop-color="#1174E6"/>
<stop offset="1" stop-color="#094180"/>
</linearGradient>
<linearGradient id="paint33_linear_29_267" x1="22.1529" y1="51.8124" x2="22.9337" y2="55.6439" gradientUnits="userSpaceOnUse">
<stop stop-color="#1174E6"/>
<stop offset="1" stop-color="#094180"/>
</linearGradient>
<linearGradient id="paint34_linear_29_267" x1="23.5291" y1="50.2025" x2="24.8304" y2="56.5882" gradientUnits="userSpaceOnUse">
<stop stop-color="#1174E6"/>
<stop offset="1" stop-color="#094180"/>
</linearGradient>
<linearGradient id="paint35_linear_29_267" x1="27.358" y1="52.1785" x2="27.6182" y2="53.4558" gradientUnits="userSpaceOnUse">
<stop stop-color="#1174E6"/>
<stop offset="1" stop-color="#094180"/>
</linearGradient>
<linearGradient id="paint36_linear_29_267" x1="29.4466" y1="51.6582" x2="29.7068" y2="52.9355" gradientUnits="userSpaceOnUse">
<stop stop-color="#1174E6"/>
<stop offset="1" stop-color="#094180"/>
</linearGradient>
<linearGradient id="paint37_linear_29_267" x1="30.8225" y1="50.0483" x2="31.6032" y2="53.8798" gradientUnits="userSpaceOnUse">
<stop stop-color="#1174E6"/>
<stop offset="1" stop-color="#094180"/>
</linearGradient>
<linearGradient id="paint38_linear_29_267" x1="31.7993" y1="47.8548" x2="33.3609" y2="55.5175" gradientUnits="userSpaceOnUse">
<stop stop-color="#1174E6"/>
<stop offset="1" stop-color="#094180"/>
</linearGradient>
<linearGradient id="paint39_linear_29_267" x1="35.1717" y1="49.1634" x2="35.9525" y2="52.9949" gradientUnits="userSpaceOnUse">
<stop stop-color="#1174E6"/>
<stop offset="1" stop-color="#094180"/>
</linearGradient>
<linearGradient id="paint40_linear_29_267" x1="38.145" y1="49.8883" x2="38.4052" y2="51.1656" gradientUnits="userSpaceOnUse">
<stop stop-color="#1174E6"/>
<stop offset="1" stop-color="#094180"/>
</linearGradient>
<linearGradient id="paint41_linear_29_267" x1="39.521" y1="48.2784" x2="40.3018" y2="52.1099" gradientUnits="userSpaceOnUse">
<stop stop-color="#1174E6"/>
<stop offset="1" stop-color="#094180"/>
</linearGradient>
<linearGradient id="paint42_linear_29_267" x1="40.4978" y1="46.0848" x2="42.0594" y2="53.7475" gradientUnits="userSpaceOnUse">
<stop stop-color="#1174E6"/>
<stop offset="1" stop-color="#094180"/>
</linearGradient>
<linearGradient id="paint43_linear_29_267" x1="43.8702" y1="47.3934" x2="44.651" y2="51.2249" gradientUnits="userSpaceOnUse">
<stop stop-color="#1174E6"/>
<stop offset="1" stop-color="#094180"/>
</linearGradient>
<linearGradient id="paint44_linear_29_267" x1="46.8435" y1="48.1183" x2="47.1037" y2="49.3956" gradientUnits="userSpaceOnUse">
<stop stop-color="#1174E6"/>
<stop offset="1" stop-color="#094180"/>
</linearGradient>
<linearGradient id="paint45_linear_29_267" x1="48.2194" y1="46.5084" x2="49.0002" y2="50.3399" gradientUnits="userSpaceOnUse">
<stop stop-color="#1174E6"/>
<stop offset="1" stop-color="#094180"/>
</linearGradient>
<linearGradient id="paint46_linear_29_267" x1="49.5956" y1="44.8986" x2="50.8969" y2="51.2842" gradientUnits="userSpaceOnUse">
<stop stop-color="#1174E6"/>
<stop offset="1" stop-color="#094180"/>
</linearGradient>
<linearGradient id="paint47_linear_29_267" x1="53.3674" y1="46.7908" x2="53.6277" y2="48.0682" gradientUnits="userSpaceOnUse">
<stop stop-color="#1174E6"/>
<stop offset="1" stop-color="#094180"/>
</linearGradient>
<linearGradient id="paint48_linear_29_267" x1="3.36784" y1="44.0892" x2="3.60764" y2="45.3173" gradientUnits="userSpaceOnUse">
<stop stop-color="#1174E6"/>
<stop offset="1" stop-color="#094180"/>
</linearGradient>
<linearGradient id="paint49_linear_29_267" x1="4.7438" y1="42.5463" x2="5.46323" y2="46.2302" gradientUnits="userSpaceOnUse">
<stop stop-color="#1174E6"/>
<stop offset="1" stop-color="#094180"/>
</linearGradient>
<linearGradient id="paint50_linear_29_267" x1="5.72061" y1="40.4442" x2="7.15953" y2="47.8117" gradientUnits="userSpaceOnUse">
<stop stop-color="#1174E6"/>
<stop offset="1" stop-color="#094180"/>
</linearGradient>
<linearGradient id="paint51_linear_29_267" x1="9.09305" y1="41.6982" x2="9.81247" y2="45.3821" gradientUnits="userSpaceOnUse">
<stop stop-color="#1174E6"/>
<stop offset="1" stop-color="#094180"/>
</linearGradient>
<linearGradient id="paint52_linear_29_267" x1="12.0663" y1="42.3929" x2="12.3061" y2="43.621" gradientUnits="userSpaceOnUse">
<stop stop-color="#1174E6"/>
<stop offset="1" stop-color="#094180"/>
</linearGradient>
<linearGradient id="paint53_linear_29_267" x1="13.4423" y1="40.8501" x2="14.1617" y2="44.534" gradientUnits="userSpaceOnUse">
<stop stop-color="#1174E6"/>
<stop offset="1" stop-color="#094180"/>
</linearGradient>
<linearGradient id="paint54_linear_29_267" x1="14.4191" y1="38.7479" x2="15.858" y2="46.1154" gradientUnits="userSpaceOnUse">
<stop stop-color="#1174E6"/>
<stop offset="1" stop-color="#094180"/>
</linearGradient>
<linearGradient id="paint55_linear_29_267" x1="17.7915" y1="40.002" x2="18.5109" y2="43.6859" gradientUnits="userSpaceOnUse">
<stop stop-color="#1174E6"/>
<stop offset="1" stop-color="#094180"/>
</linearGradient>
<linearGradient id="paint56_linear_29_267" x1="20.7648" y1="40.6967" x2="21.0046" y2="41.9248" gradientUnits="userSpaceOnUse">
<stop stop-color="#1174E6"/>
<stop offset="1" stop-color="#094180"/>
</linearGradient>
<linearGradient id="paint57_linear_29_267" x1="22.1407" y1="39.1539" x2="22.8601" y2="42.8378" gradientUnits="userSpaceOnUse">
<stop stop-color="#1174E6"/>
<stop offset="1" stop-color="#094180"/>
</linearGradient>
<linearGradient id="paint58_linear_29_267" x1="23.5169" y1="37.6111" x2="24.7159" y2="43.7507" gradientUnits="userSpaceOnUse">
<stop stop-color="#1174E6"/>
<stop offset="1" stop-color="#094180"/>
</linearGradient>
<linearGradient id="paint59_linear_29_267" x1="27.3458" y1="39.5048" x2="27.5856" y2="40.7329" gradientUnits="userSpaceOnUse">
<stop stop-color="#1174E6"/>
<stop offset="1" stop-color="#094180"/>
</linearGradient>
<linearGradient id="paint60_linear_29_267" x1="29.4344" y1="39.0061" x2="29.6742" y2="40.2342" gradientUnits="userSpaceOnUse">
<stop stop-color="#1174E6"/>
<stop offset="1" stop-color="#094180"/>
</linearGradient>
<linearGradient id="paint61_linear_29_267" x1="30.8103" y1="37.4632" x2="31.5297" y2="41.1472" gradientUnits="userSpaceOnUse">
<stop stop-color="#1174E6"/>
<stop offset="1" stop-color="#094180"/>
</linearGradient>
<linearGradient id="paint62_linear_29_267" x1="31.7871" y1="35.3611" x2="33.226" y2="42.7286" gradientUnits="userSpaceOnUse">
<stop stop-color="#1174E6"/>
<stop offset="1" stop-color="#094180"/>
</linearGradient>
<linearGradient id="paint63_linear_29_267" x1="35.1595" y1="36.6152" x2="35.8789" y2="40.2991" gradientUnits="userSpaceOnUse">
<stop stop-color="#1174E6"/>
<stop offset="1" stop-color="#094180"/>
</linearGradient>
<linearGradient id="paint64_linear_29_267" x1="38.1328" y1="37.3099" x2="38.3726" y2="38.538" gradientUnits="userSpaceOnUse">
<stop stop-color="#1174E6"/>
<stop offset="1" stop-color="#094180"/>
</linearGradient>
<linearGradient id="paint65_linear_29_267" x1="39.5088" y1="35.767" x2="40.2282" y2="39.4509" gradientUnits="userSpaceOnUse">
<stop stop-color="#1174E6"/>
<stop offset="1" stop-color="#094180"/>
</linearGradient>
<linearGradient id="paint66_linear_29_267" x1="40.4856" y1="33.6649" x2="41.9245" y2="41.0324" gradientUnits="userSpaceOnUse">
<stop stop-color="#1174E6"/>
<stop offset="1" stop-color="#094180"/>
</linearGradient>
<linearGradient id="paint67_linear_29_267" x1="43.858" y1="34.9189" x2="44.5774" y2="38.6029" gradientUnits="userSpaceOnUse">
<stop stop-color="#1174E6"/>
<stop offset="1" stop-color="#094180"/>
</linearGradient>
<linearGradient id="paint68_linear_29_267" x1="46.8313" y1="35.6136" x2="47.0711" y2="36.8418" gradientUnits="userSpaceOnUse">
<stop stop-color="#1174E6"/>
<stop offset="1" stop-color="#094180"/>
</linearGradient>
<linearGradient id="paint69_linear_29_267" x1="48.2072" y1="34.0708" x2="48.9266" y2="37.7547" gradientUnits="userSpaceOnUse">
<stop stop-color="#1174E6"/>
<stop offset="1" stop-color="#094180"/>
</linearGradient>
<linearGradient id="paint70_linear_29_267" x1="49.5834" y1="32.528" x2="50.7824" y2="38.6676" gradientUnits="userSpaceOnUse">
<stop stop-color="#1174E6"/>
<stop offset="1" stop-color="#094180"/>
</linearGradient>
<linearGradient id="paint71_linear_29_267" x1="53.3552" y1="34.3415" x2="53.595" y2="35.5696" gradientUnits="userSpaceOnUse">
<stop stop-color="#1174E6"/>
<stop offset="1" stop-color="#094180"/>
</linearGradient>
<clipPath id="clip0_29_267">
<rect width="56.2561" height="62.0097" fill="white" transform="translate(0.935516)"/>
</clipPath>
</defs>
</svg>
